<?xml version="1.0" encoding="utf-8"?>
<!-- Generator: Adobe Illustrator 19.0.0, SVG Export Plug-In . SVG Version: 6.00 Build 0)  -->
<svg version="1.1" id="Capa_1" xmlns="http://www.w3.org/2000/svg" xmlns:xlink="http://www.w3.org/1999/xlink" x="0px" y="0px"
	 viewBox="-3.8 -170.7 681.7 681.7" style="enable-background:new -3.8 -170.7 681.7 681.7;" xml:space="preserve">
<style type="text/css">
	.st0{fill:#160000;}
	.st1{fill:#EE4323;}
</style>
<g>
	<g>
		<path className="st0" d="M250.2-170.7c-107.3,0-254,81.1-254,254c0,168.5,141.1,254,254,254c193.7,0,254-169.7,254-254
			C504.2-41.1,409-170.7,250.2-170.7z M191.3-146.8c-26.5,22.6-48.5,60-62.7,106.4c-18.4-10.9-35.3-24.4-50.3-40.1
			C109.3-113,148.5-135.8,191.3-146.8z M67.4-68.3c16.8,17.5,35.9,32.4,56.7,44.2c-7.8,30.3-12.4,63.9-13,99.2H12.8
			C14.6,22.4,33.8-27.9,67.4-68.3z M67.4,234.9c-33.7-40.4-52.8-90.7-54.6-143.4h98.3c0.6,35.4,5.2,68.9,13,99.2
			C103.4,202.6,84.3,217.4,67.4,234.9z M78.3,247.2c15-15.7,31.9-29.2,50.3-40.1c14.2,46.3,36.2,83.8,62.7,106.4
			C148.5,302.4,109.3,279.6,78.3,247.2z M242,320.3c-42.6-5.4-79.3-53-99.1-121.2c30.6-15.5,64.4-24.2,99.1-25.5L242,320.3
			L242,320.3z M242,157.3c-36.2,1.2-71.4,10.1-103.3,25.7c-6.7-28-10.7-58.9-11.3-91.5H242L242,157.3L242,157.3z M242,75.1H127.4
			c0.6-32.6,4.6-63.5,11.3-91.5C170.7-0.8,205.9,8.1,242,9.3V75.1z M242-7c-34.8-1.2-68.5-10-99.1-25.5
			c19.8-68.3,56.5-115.8,99.1-121.2V-7z M433-68.3c33.6,40.4,52.8,90.7,54.6,143.4h-98.2c-0.6-35.4-5.2-68.9-13-99.2
			C397.1-36,416.2-50.8,433-68.3z M422.1-80.6c-15,15.7-31.9,29.2-50.3,40.1c-14.2-46.3-36.2-83.7-62.7-106.4
			C351.9-135.8,391.1-113,422.1-80.6z M258.4-153.7c42.6,5.4,79.3,53,99.1,121.2C326.9-17,293.2-8.3,258.4-7V-153.7z M258.4,9.3
			c36.2-1.2,71.4-10.1,103.3-25.7c6.7,28,10.7,58.9,11.3,91.5H258.4V9.3z M258.4,91.5H373c-0.6,32.6-4.6,63.5-11.3,91.5
			c-31.9-15.7-67.1-24.6-103.3-25.7V91.5z M258.4,320.3V173.6c34.8,1.2,68.5,10,99.1,25.5C337.7,267.4,301,314.9,258.4,320.3z
			 M309.1,313.4c26.5-22.6,48.5-60,62.7-106.4c18.4,10.9,35.3,24.4,50.3,40.1C391.1,279.6,351.9,302.4,309.1,313.4z M433,234.9
			c-16.8-17.5-35.9-32.3-56.6-44.2c7.8-30.3,12.4-63.9,13-99.2h98.2C485.8,144.2,466.6,194.5,433,234.9z"/>
	</g>
</g>
<path className="st1" d="M392.8,511c-30.3-13.1-58.6-46.3-58.6-80.3c-0.1-37.1,23.4-68.6,52.6-89.3c-3.5,13.3-5.4,25.4,3.3,37.3
	c8.1,11,22.3,16.4,35.6,13.5c31.3-6.8,32.7-41.2,14.2-61.3c-18.3-19.8-36.1-42.2-29.1-71c3.5-14.4,12.3-27.9,23.6-37.6
	c-8.6,22.7,15.9,45,32,56.1c28,19.3,58.7,33.9,84.5,56.5c27.1,23.8,47.1,55.9,43,93.3c-4.4,40.4-36.5,68.6-72.5,82.7
	c76.2-16.8,154.8-75.9,156.5-160.4c1.3-69.5-46.3-123-105.4-153.6l-3.1-1.7c1.6,3.9,2.2,7.3,2.1,10.3c0.5-2.2,0.9-4.5,1-6.8
	c0,2.8-0.4,5.5-1.1,8.2l0.1-1.4c-0.9,3.7-2.4,7.2-4.4,10.4l0.9-0.9c-11.8,19.5-43.7,23.8-59.4,3.5c-25.3-32.5,0.5-67.6,4.1-102.1
	c4.5-43.2-22.6-85.1-56.1-110.2c18.5,29.9-5.9,69.5-25.4,91.6c-18.9,21.5-41.9,39.4-62.8,58.9c-22.4,20.9-44,43-62.4,67.6
	c-36.9,49.2-59.4,111-42.8,172.4C279.7,458.1,332.8,497.2,392.8,511L392.8,511z"/>
</svg>
