<?xml version="1.0" encoding="utf-8"?>
<!-- Generator: Adobe Illustrator 19.0.0, SVG Export Plug-In . SVG Version: 6.00 Build 0)  -->
<svg version="1.1" id="Layer_1" xmlns="http://www.w3.org/2000/svg" xmlns:xlink="http://www.w3.org/1999/xlink" x="0px" y="0px"
	 viewBox="0.2 -170.7 681.7 681.7" style="enable-background:new 0.2 -170.7 681.7 681.7;" xml:space="preserve">
<style type="text/css">
	.st0{fill:#FF5E24;}
	.st1{fill:#1F93FF;}
</style>
<g>
	<path d="M468.2-170.7h-440c-15.5,0-28,12.5-28,28v296c0,15.5,12.5,28,28,28h162.2l-4.8,24h-33.4c-4.4,0-8,3.6-8,8v24
		c0,4.4,3.6,8,8,8h192c4.4,0,8-3.6,8-8v-24c0-4.4-3.6-8-8-8h-33.4l-4.8-24h162.2c15.5,0,28-12.5,28-28v-296
		C496.1-158.1,483.6-170.7,468.2-170.7z M336.2,221.3v8h-176v-8H336.2z M201.9,205.3l4.8-24h82.9l4.8,24H201.9z M480.2,153.3
		c0,6.6-5.4,12-12,12h-440c-6.6,0-12-5.4-12-12v-20h464V153.3z M480.2,117.3h-464v-260c0-6.6,5.4-12,12-12h440c6.6,0,12,5.4,12,12
		V117.3z"/>
	<path d="M256.2,141.3h-16c-4.4,0-8,3.6-8,8s3.6,8,8,8h16c4.4,0,8-3.6,8-8S260.6,141.3,256.2,141.3z"/>
</g>
<g id="XMLID_7_">
	<path id="XMLID_8_" className="st0" d="M481.5,76.6c-24.6,17.3-52.6,37-67.5,69.5c-26,56.7,53.2,118.5,56.6,121.1
		c0.8,0.6,1.7,0.9,2.7,0.9c1,0,2-0.3,2.8-1c1.6-1.3,2-3.5,1.1-5.4c-0.3-0.6-28.7-55.7-27.6-95.3c0.4-13.8,19.7-29.4,40.1-46
		c18.7-15.2,39.9-32.4,52.3-52.5c27.2-44.3-3-87.8-3.3-88.2c-1.2-1.7-3.4-2.3-5.3-1.5c-1.9,0.8-2.9,2.9-2.5,4.9
		c0.1,0.3,6,29.1-10.4,58.7C513.5,54.1,498.7,64.5,481.5,76.6z"/>
	<path id="XMLID_9_" className="st0" d="M585.3,96.2c1.7-1.3,2.2-3.7,1.2-5.6c-1.1-1.9-3.3-2.7-5.4-2c-4.2,1.6-102.5,39.5-102.5,85.3
		c0,31.6,13.5,48.2,23.3,60.4c3.9,4.8,7.2,8.9,8.3,12.4c3.1,10.1-4.2,28.5-7.3,34.7c-0.9,1.8-0.5,3.9,1.1,5.3
		c0.8,0.7,1.8,1.1,2.9,1.1c0.9,0,1.7-0.3,2.5-0.8c1.7-1.2,41.3-29.2,34.2-62.9c-2.6-12.8-9-22.2-14.5-30.5
		c-8.6-12.8-14.8-22.1-5.4-39.2C534.7,134.4,584.8,96.5,585.3,96.2z"/>
	<path id="XMLID_10_" className="st1" d="M329.4,288.4c-1.7,5-0.9,10.1,2.3,14.5c10.7,14.8,48.4,22.9,106.3,22.9c0,0,0,0,0,0
		c7.8,0,16.1-0.2,24.6-0.5c92.5-3.3,126.9-32.1,128.3-33.4c1.5-1.3,2-3.6,1-5.4c-1-1.8-3-2.7-5-2.2c-32.6,8.9-93.5,12.1-135.7,12.1
		c-47.2,0-71.3-3.4-77.2-5.9c3-4.1,21.7-11.6,44.8-16.1c2.2-0.4,3.7-2.5,3.5-4.7c-0.2-2.2-2.1-3.9-4.3-3.9
		C404.4,265.9,336.5,266.9,329.4,288.4z"/>
	<path id="XMLID_11_" className="st1" d="M639.1,258.7c-19.1,0-37.2,9.6-38,10c-1.8,0.9-2.7,3-2.2,4.9c0.5,1.9,2.2,3.3,4.2,3.3
		c0.4,0,40.7,0.3,44.4,23.4c3.2,19.9-38.1,52.1-54.4,62.8c-1.8,1.2-2.4,3.4-1.6,5.3c0.7,1.6,2.3,2.7,4,2.7c0.3,0,0.6,0,0.9-0.1
		c3.8-0.8,94.1-20.7,84.6-73.3C675.3,265.5,655.1,258.7,639.1,258.7z"/>
	<path id="XMLID_12_" className="st1" d="M577.2,356.6c0.3-1.7-0.4-3.4-1.8-4.4l-21.6-15.2c-1.1-0.7-2.4-1-3.6-0.6
		c-0.2,0.1-22.9,6-55.7,9.7c-13,1.5-27.7,2.2-42.3,2.2c-32.9,0-54.3-3.9-57.5-6.7c-0.4-0.8-0.3-1.2-0.2-1.4c0.6-1.6,3.6-3.5,5.6-4.2
		c2.2-0.8,3.3-3.2,2.7-5.4c-0.7-2.2-3-3.5-5.2-3c-21.7,5.2-32.3,12.6-31.6,21.8c1.4,16.3,39.2,24.7,71.2,26.9
		c4.6,0.3,9.6,0.5,14.8,0.5c0,0,0,0,0,0c53.2,0,121.4-16.7,122-16.9C575.6,359.7,576.9,358.3,577.2,356.6z"/>
	<path id="XMLID_13_" className="st1" d="M414,391.7c1.6-1.1,2.4-3.1,1.8-5c-0.6-1.9-2.3-3.1-4.3-3.1c-2.9,0.1-28.5,1.2-30.3,17.5
		c-0.5,4.9,0.9,9.3,4.1,13.2c9.2,10.9,34,17.3,75.7,19.8c4.9,0.3,10,0.4,14.9,0.4c53.1,0,88.9-16.6,90.4-17.3
		c1.5-0.7,2.4-2.1,2.5-3.7c0.1-1.6-0.7-3.1-2.1-4l-27.4-16.7c-0.9-0.6-2.1-0.8-3.2-0.5c-0.2,0-17.5,3.6-43.8,7.2
		c-5,0.7-11.2,1-18.5,1c-26.2,0-55.3-4.3-60.9-7.1C413.1,392.9,413.2,392.3,414,391.7z"/>
	<path id="XMLID_14_" className="st1" d="M451.2,484.8c121.7-0.1,187-21.7,199.6-35.4c4.5-4.8,4.9-9.4,4.6-12.4
		c-0.9-7.3-7.6-11.8-8.4-12.3c-1.8-1.2-4.3-0.9-5.7,0.8c-1.4,1.6-1.5,4,0,5.7c0.8,1,1.2,2.6-1,4.9c-5,4.7-55.8,19-140.2,23.2
		c-11.6,0.6-23.7,0.9-36.1,0.9c-75.6,0-131-10.4-138.2-16.4c2.8-4,22.4-10.5,43.2-14.1c2.3-0.4,3.9-2.6,3.6-5
		c-0.4-2.4-2.5-4-4.9-3.7c-0.6,0.1-2.6,0.2-4.9,0.3c-34.4,2.1-74,6.8-76.1,24.5c-0.6,5.4,1,10.3,4.8,14.6
		C300.6,470.9,327.3,484.8,451.2,484.8C451.2,484.8,451.2,484.8,451.2,484.8z"/>
	<path id="XMLID_15_" className="st1" d="M674.7,453.3c-1.7-0.8-3.8-0.4-5,1c-0.2,0.2-18.5,19.3-73.5,30.6c-21.1,4.2-60.6,6.4-117.5,6.4
		c-57,0-111.3-2.2-111.8-2.3c-2.3-0.1-4.2,1.5-4.5,3.8c-0.3,2.2,1.1,4.3,3.3,4.9c0.6,0.1,57.4,13.5,135.1,13.5
		c37.3,0,73.6-3,107.8-9c63.9-11.2,68.4-42.9,68.5-44.2C677.4,455.9,676.4,454.1,674.7,453.3z"/>
</g>
</svg>
