<?xml version="1.0" encoding="utf-8"?>
<!-- Generator: Adobe Illustrator 19.0.0, SVG Export Plug-In . SVG Version: 6.00 Build 0)  -->
<svg version="1.1" id="Capa_1" xmlns="http://www.w3.org/2000/svg" xmlns:xlink="http://www.w3.org/1999/xlink" x="0px" y="0px"
	 viewBox="-3.8 -170.7 681.7 681.7" style="enable-background:new -3.8 -170.7 681.7 681.7;" xml:space="preserve">
<style type="text/css">
	.st0{fill:#160000;}
	.st1{fill:#FF2D20;}
</style>
<g>
	<g>
		<path className="st0" d="M250.2-170.7c-107.3,0-254,81.1-254,254c0,168.5,141.1,254,254,254c193.7,0,254-169.7,254-254
			C504.2-41.1,409-170.7,250.2-170.7z M191.3-146.8c-26.5,22.6-48.5,60-62.7,106.4c-18.4-10.9-35.3-24.4-50.3-40.1
			C109.3-113,148.5-135.8,191.3-146.8z M67.4-68.3c16.8,17.5,35.9,32.4,56.7,44.2c-7.8,30.3-12.4,63.9-13,99.2H12.8
			C14.6,22.4,33.8-27.9,67.4-68.3z M67.4,234.9c-33.7-40.4-52.8-90.7-54.6-143.4h98.3c0.6,35.4,5.2,68.9,13,99.2
			C103.4,202.6,84.3,217.4,67.4,234.9z M78.3,247.2c15-15.7,31.9-29.2,50.3-40.1c14.2,46.3,36.2,83.8,62.7,106.4
			C148.5,302.4,109.3,279.6,78.3,247.2z M242,320.3c-42.6-5.4-79.3-53-99.1-121.2c30.6-15.5,64.4-24.2,99.1-25.5L242,320.3
			L242,320.3z M242,157.3c-36.2,1.2-71.4,10.1-103.3,25.7c-6.7-28-10.7-58.9-11.3-91.5H242L242,157.3L242,157.3z M242,75.1H127.4
			c0.6-32.6,4.6-63.5,11.3-91.5C170.7-0.8,205.9,8.1,242,9.3V75.1z M242-7c-34.8-1.2-68.5-10-99.1-25.5
			c19.8-68.3,56.5-115.8,99.1-121.2V-7z M433-68.3c33.6,40.4,52.8,90.7,54.6,143.4h-98.2c-0.6-35.4-5.2-68.9-13-99.2
			C397.1-36,416.2-50.8,433-68.3z M422.1-80.6c-15,15.7-31.9,29.2-50.3,40.1c-14.2-46.3-36.2-83.7-62.7-106.4
			C351.9-135.8,391.1-113,422.1-80.6z M258.4-153.7c42.6,5.4,79.3,53,99.1,121.2C326.9-17,293.2-8.3,258.4-7V-153.7z M258.4,9.3
			c36.2-1.2,71.4-10.1,103.3-25.7c6.7,28,10.7,58.9,11.3,91.5H258.4V9.3z M258.4,91.5H373c-0.6,32.6-4.6,63.5-11.3,91.5
			c-31.9-15.7-67.1-24.6-103.3-25.7V91.5z M258.4,320.3V173.6c34.8,1.2,68.5,10,99.1,25.5C337.7,267.4,301,314.9,258.4,320.3z
			 M309.1,313.4c26.5-22.6,48.5-60,62.7-106.4c18.4,10.9,35.3,24.4,50.3,40.1C391.1,279.6,351.9,302.4,309.1,313.4z M433,234.9
			c-16.8-17.5-35.9-32.3-56.6-44.2c7.8-30.3,12.4-63.9,13-99.2h98.2C485.8,144.2,466.6,194.5,433,234.9z"/>
	</g>
</g>
<path className="st1" d="M677.6,171.2c0.2,0.6,0.2,1.2,0.2,1.8v94.3c0,2.5-1.3,4.7-3.5,6l-79.1,45.5v90.3c0,2.5-1.3,4.7-3.4,6
	l-165.1,95.1c-0.4,0.2-0.8,0.4-1.2,0.5c-0.2,0.1-0.3,0.1-0.5,0.2c-1.2,0.3-2.4,0.3-3.5,0c-0.2-0.1-0.4-0.2-0.5-0.2
	c-0.4-0.1-0.8-0.3-1.1-0.5L254.7,415c-2.1-1.2-3.5-3.5-3.5-6V126.3c0-0.6,0.1-1.2,0.2-1.8c0.1-0.2,0.2-0.4,0.2-0.6
	c0.1-0.4,0.2-0.7,0.4-1.1c0.1-0.2,0.3-0.4,0.5-0.6c0.2-0.3,0.4-0.6,0.6-0.8c0.2-0.2,0.5-0.3,0.7-0.5c0.2-0.2,0.5-0.4,0.8-0.6h0
	l82.6-47.5c2.1-1.2,4.7-1.2,6.9,0l82.6,47.5h0c0.3,0.2,0.5,0.4,0.8,0.6c0.2,0.2,0.5,0.3,0.7,0.5c0.2,0.2,0.4,0.5,0.6,0.8
	c0.1,0.2,0.3,0.4,0.5,0.6c0.2,0.3,0.3,0.7,0.4,1.1c0.1,0.2,0.2,0.4,0.2,0.6c0.2,0.6,0.2,1.2,0.2,1.8v176.6l68.8-39.6V173
	c0-0.6,0.1-1.2,0.2-1.8c0.1-0.2,0.2-0.4,0.2-0.6c0.1-0.4,0.3-0.7,0.4-1.1c0.1-0.2,0.3-0.4,0.5-0.6c0.2-0.3,0.4-0.6,0.6-0.8
	c0.2-0.2,0.4-0.3,0.7-0.5c0.3-0.2,0.5-0.4,0.8-0.6h0l82.6-47.5c2.1-1.2,4.7-1.2,6.9,0l82.6,47.5c0.3,0.2,0.5,0.4,0.8,0.6
	c0.2,0.2,0.5,0.3,0.7,0.5c0.2,0.2,0.4,0.5,0.6,0.8c0.2,0.2,0.3,0.4,0.5,0.6c0.2,0.3,0.3,0.7,0.4,1.1
	C677.4,170.8,677.5,171,677.6,171.2L677.6,171.2z M664.1,263.3v-78.4l-28.9,16.6l-39.9,23v78.4L664.1,263.3L664.1,263.3z
	 M581.5,405.1v-78.4l-39.3,22.4l-112.1,64v79.2L581.5,405.1z M265,138.2v266.9l151.4,87.1v-79.2l-79.1-44.8l0,0l0,0
	c-0.3-0.2-0.5-0.4-0.7-0.6c-0.2-0.2-0.5-0.3-0.7-0.5l0,0c-0.2-0.2-0.4-0.5-0.6-0.7c-0.2-0.2-0.4-0.4-0.5-0.7l0,0
	c-0.2-0.3-0.2-0.6-0.4-0.9c-0.1-0.3-0.3-0.5-0.3-0.8v0c-0.1-0.3-0.1-0.7-0.1-1c0-0.3-0.1-0.5-0.1-0.8V177.8l-39.9-23L265,138.2
	L265,138.2z M340.7,86.7l-68.8,39.6l68.8,39.6l68.8-39.6L340.7,86.7L340.7,86.7z M376.5,333.8l39.9-23V138.2l-28.9,16.6l-39.9,23
	v172.6L376.5,333.8z M588.4,133.4L519.6,173l68.8,39.6l68.8-39.6L588.4,133.4z M581.5,224.5l-39.9-23l-28.9-16.6v78.4l39.9,23
	l28.9,16.6V224.5z M423.3,401.2l100.9-57.6l50.4-28.8l-68.7-39.6l-79.1,45.6l-72.1,41.5L423.3,401.2z"/>
</svg>
